<?xml version="1.0" standalone="no"?><!DOCTYPE svg PUBLIC "-//W3C//DTD SVG 1.1//EN" "http://www.w3.org/Graphics/SVG/1.1/DTD/svg11.dtd"><svg class="icon" width="81px" height="81.00px" viewBox="0 0 1024 1024" version="1.1" xmlns="http://www.w3.org/2000/svg"><path d="M505.460524 1021.012745c240.117407 0 434.839834-44.434538 434.839835-99.222069 0-22.450317-32.697379-43.170428-87.809766-59.858097-1.490097-0.459034-3.778207-1.038124-6.864331-1.730207l-280.251145 108.205021-386.245738-88.862014c-1.942069-15.084579-3.771145-22.450317-5.261241-21.991282C109.497379 874.820855 70.62069 897.271172 70.62069 921.790676c0 54.787531 194.722428 99.222069 434.839834 99.222069z" fill="#EBEBEB" /><path d="M353.668414 248.782566v-15.021021c0-4.830455 2.789517-8.707531 7.662345-8.707531 4.865766 0 8.778152 3.884138 8.778151 8.707531v15.021021h17.266759c4.872828 0 8.778152 3.884138 8.778152 8.700468 0 4.830455-3.912386 8.707531-8.778152 8.707532h-17.266759v23.728551c0 4.823393-3.912386 8.700469-8.778151 8.700469-4.872828 0-7.662345-3.884138-7.662345-8.700469v-23.728551h-22.294952c-4.872828 0-8.785214-3.884138-8.785214-8.707532s3.912386-8.700469 8.785214-8.700468h22.294952z m300.844138 130.817765v-4.329048c0-3.192055 2.620028-5.812083 5.80502-5.812083 3.192055 0 5.805021 2.620028 5.805021 5.812083v4.329048h12.980083c3.177931 0 5.805021 2.62709 5.805021 5.819145 0 3.192055-2.620028 5.812083-5.805021 5.812083h-12.980083v15.84022c0 3.192055-2.612966 5.819145-5.805021 5.819145a5.833269 5.833269 0 0 1-5.797958-5.819145V391.238621H642.224552a5.833269 5.833269 0 0 1-5.805021-5.812083c0-3.192055 2.612966-5.819145 5.805021-5.819145h12.288z" fill="#387AC9" /><path d="M247.172414 373.654069a13.078952 13.078952 0 1 0 0-26.157903 13.078952 13.078952 0 0 0 0 26.157903zM561.039007 455.390455a16.34869 16.34869 0 1 0 32.697379 0 16.34869 16.34869 0 0 0-32.697379 0zM573.334069 550.205793l-5.755586 398.879779 280.23702-94.525793 7.485794-241.070786z" fill="#88AFDF" /><path d="M574.103834 527.19051L480.70091 686.08l-296.056055-42.3936V878.521379l386.203366 77.802814 283.224276-88.275862v-243.712l-194.312828 61.736607-85.662897-158.882428z m287.729876 99.998897v251.925186l-288.753876 96.121821-404.374068-84.504717V635.614455L470.898759 677.534897 573.079834 517.508414l85.203863 182.568607 203.550013-72.887614z" fill="#387AC9" /><path d="M567.578483 537.126841v411.958731l281.176276-87.760331-4.152497-237.356138-193.076965 53.000828z" fill="#C4D8F0" /><path d="M574.117959 519.874207c0 3.919448 27.047724 59.8016 81.150234 167.653517l278.49269-88.607779-79.660138-146.799228c-186.615172 41.249545-279.982786 63.841103-279.982786 67.75349z" fill="#D1E2F7" /><path d="M861.83371 441.746538l-7.768276 14.343062-280.9856 67.95829-403.152331-53.248-1.221737-16.645297 329.650317-54.342621 363.477627 41.934566z m-364.544-29.794869L206.706759 463.448276l371.493075 47.810207 250.117297-58.848221-331.034483-40.458593z" fill="#387AC9" /><path d="M567.175945 511.265545l294.248165-69.886235L953.37931 606.737655 653.827531 700.599614l-86.651586-189.334069z m91.948138 176.551724l275.8656-88.275862-84.603586-143.451807-272.1792 66.206897 80.917186 165.520772z" fill="#387AC9" /><path d="M169.934566 456.0896L90.232055 626.885738l393.879835 67.1744 90.408607-182.794593-404.592994-55.175945z m301.606841 220.689655L111.079283 617.931034l69.886234-147.124082 375.172414 47.810207-84.603586 158.162096z" fill="#387AC9" /><path d="M567.175945 511.265545l13.488552-0.296607-6.136938 445.355255-14.71029 7.351614z" fill="#387AC9" /><path d="M649.710345 233.048276a98.868966 95.337931 90 1 0 190.675862 0 98.868966 95.337931 90 1 0-190.675862 0Z" fill="#E36F16" /><path d="M794.313269 95.168441a153.656497 153.656497 0 0 0-26.376828-39.420469c-27.542069-29.985545-66.100966-49.293241-108.572248-54.377931A190.280386 190.280386 0 0 0 636.906814 0c-6.942014 0-14.180634 0.423724-21.511062 1.271172-42.654897 4.872828-81.432717 24.081655-109.179586 54.088387a153.529379 153.529379 0 0 0-26.518069 39.3216A143.254069 143.254069 0 0 0 466.096552 155.68331c0 27.224276 7.867145 54.0672 22.761048 77.633324 8.417986 13.326124 22.824607 30.55051 35.147917 41.101242l-6.82902 29.724248-1.963256 8.368552c-0.353103 0.8192-0.621462 1.687834-0.805075 2.570593-0.120055 0.564966-0.148303 1.129931-0.2048 1.694897-0.03531 0.430786-0.120055 0.85451-0.120056 1.29942 0 7.641159 5.882703 13.841655 13.142511 13.841655 2.372855 0 4.569159-0.720331 6.490041-1.87851l0.183614-0.091807c0.282483-0.183614 0.564966-0.331917 0.833324-0.529655l48.756524-25.762428c10.494234 3.177931 20.903724 5.197683 31.885242 6.468856a187.321379 187.321379 0 0 0 30.366896 1.024 130.203366 130.203366 0 0 1-13.954648-29.929049c-4.307862-0.141241-8.622786-0.459034-12.9024-0.953379-1.242924-0.141241-2.485848-0.346041-3.728773-0.515531a155.845738 155.845738 0 0 1-24.152275-5.331862 15.727228 15.727228 0 0 0-5.014069-0.805076c-2.704772 0-5.3248 0.748579-7.9872 2.196303-0.346041 0.190676-0.685021 0.353103-1.031063 0.564966l-31.284965 19.399503-0.028248 0.014125c-0.64971 0.402538-1.016938 0.550841-1.355918 0.550841-1.094621 0-1.991503-0.974566-1.991503-2.175117l1.158179-4.9152 1.327669-5.353049 4.625655-18.537931c0.303669-1.136993 0.607338-2.499972 0.607338-4.039503 0-4.237241-1.927945-8.241434-5.134124-10.706097a135.436359 135.436359 0 0 1-12.535172-11.073324 127.540966 127.540966 0 0 1-17.761104-22.104276c-11.793655-18.665048-18.029462-39.830069-18.029462-61.242262 0-16.609986 3.608717-32.768 10.727283-48.007945a123.360221 123.360221 0 0 1 21.278014-31.518013c22.810483-24.660745 54.872276-40.472717 90.302676-44.526345 6.165186-0.706207 12.224441-1.05931 18.0224-1.05931 6.080441 0 12.415117 0.381352 18.820414 1.151117 35.26091 4.216055 67.146152 20.112772 89.780082 44.752331a123.091862 123.091862 0 0 1 21.165021 31.588634c0.974566 2.097434 1.87851 4.216055 2.718897 6.355862 12.711724 2.507034 24.717241 7.097379 35.691696 13.432056a144.835972 144.835972 0 0 0-10.762593-33.191725z" fill="#1D6EB7" /><path d="M808.606897 215.6544V199.574069h-41.736828V169.489655h-15.677793v22.528c-11.136883-6.073379-34.57589-9.985766-60.168828-9.985765H674.427586v16.059144h16.595862c25.734179 0 49.279117 3.954759 60.168828 10.077573v8.926455c-11.136883-6.073379-34.57589-9.985766-60.168828-9.985765H674.427586v16.066206h16.595862c25.727117 0 49.279117 3.954759 60.168828 10.063449v8.940579c-11.136883-6.073379-34.57589-9.992828-60.168828-9.992828H674.427586v16.066207h16.595862c25.727117 0 49.279117 3.954759 60.168828 10.070511v32.5632h57.414621v-16.066207h-41.736828v-9.0112h41.736828v-16.066207h-41.736828v-9.0112h41.736828v-16.066207h-41.736828v-9.0112h41.736828z" fill="#FFFFFF" /></svg>